<mxfile host="app.diagrams.net" modified="2022-07-29T21:21:40.103Z" agent="5.0 (Macintosh; Intel Mac OS X 10_15_7) AppleWebKit/537.36 (KHTML, like Gecko) Chrome/102.0.5005.115 Safari/537.36 OPR/88.0.4412.85" etag="L0u-IViyZz15ZK4q4_EK" version="20.0.4" type="github">
  <diagram id="C5RBs43oDa-KdzZeNtuy" name="Page-1">
    <mxGraphModel dx="1145" dy="770" grid="1" gridSize="10" guides="1" tooltips="1" connect="1" arrows="1" fold="1" page="1" pageScale="1" pageWidth="827" pageHeight="1169" math="0" shadow="0">
      <root>
        <mxCell id="WIyWlLk6GJQsqaUBKTNV-0" />
        <mxCell id="WIyWlLk6GJQsqaUBKTNV-1" parent="WIyWlLk6GJQsqaUBKTNV-0" />
        <mxCell id="eS6HoDvDFkSvX2eC2Q-J-0" value="GenericGraph" style="swimlane;fontStyle=1;align=center;verticalAlign=top;childLayout=stackLayout;horizontal=1;startSize=26;horizontalStack=0;resizeParent=1;resizeParentMax=0;resizeLast=0;collapsible=1;marginBottom=0;" vertex="1" parent="WIyWlLk6GJQsqaUBKTNV-1">
          <mxGeometry x="144" y="40" width="214" height="86" as="geometry" />
        </mxCell>
        <mxCell id="eS6HoDvDFkSvX2eC2Q-J-1" value="+ nodes: ListOfGenericNodes" style="text;strokeColor=none;fillColor=none;align=left;verticalAlign=top;spacingLeft=4;spacingRight=4;overflow=hidden;rotatable=0;points=[[0,0.5],[1,0.5]];portConstraint=eastwest;" vertex="1" parent="eS6HoDvDFkSvX2eC2Q-J-0">
          <mxGeometry y="26" width="214" height="26" as="geometry" />
        </mxCell>
        <mxCell id="eS6HoDvDFkSvX2eC2Q-J-2" value="" style="line;strokeWidth=1;fillColor=none;align=left;verticalAlign=middle;spacingTop=-1;spacingLeft=3;spacingRight=3;rotatable=0;labelPosition=right;points=[];portConstraint=eastwest;" vertex="1" parent="eS6HoDvDFkSvX2eC2Q-J-0">
          <mxGeometry y="52" width="214" height="8" as="geometry" />
        </mxCell>
        <mxCell id="eS6HoDvDFkSvX2eC2Q-J-39" value="+ search(GenericNode): GenericNode" style="text;strokeColor=none;fillColor=none;align=left;verticalAlign=top;spacingLeft=4;spacingRight=4;overflow=hidden;rotatable=0;points=[[0,0.5],[1,0.5]];portConstraint=eastwest;" vertex="1" parent="eS6HoDvDFkSvX2eC2Q-J-0">
          <mxGeometry y="60" width="214" height="26" as="geometry" />
        </mxCell>
        <mxCell id="eS6HoDvDFkSvX2eC2Q-J-8" value="GenericNode" style="swimlane;fontStyle=1;align=center;verticalAlign=top;childLayout=stackLayout;horizontal=1;startSize=26;horizontalStack=0;resizeParent=1;resizeParentMax=0;resizeLast=0;collapsible=1;marginBottom=0;" vertex="1" parent="WIyWlLk6GJQsqaUBKTNV-1">
          <mxGeometry x="516" y="40" width="210" height="86" as="geometry" />
        </mxCell>
        <mxCell id="eS6HoDvDFkSvX2eC2Q-J-9" value="+ adjacencyList: ListOfGenericNodes" style="text;strokeColor=none;fillColor=none;align=left;verticalAlign=top;spacingLeft=4;spacingRight=4;overflow=hidden;rotatable=0;points=[[0,0.5],[1,0.5]];portConstraint=eastwest;" vertex="1" parent="eS6HoDvDFkSvX2eC2Q-J-8">
          <mxGeometry y="26" width="210" height="26" as="geometry" />
        </mxCell>
        <mxCell id="eS6HoDvDFkSvX2eC2Q-J-10" value="" style="line;strokeWidth=1;fillColor=none;align=left;verticalAlign=middle;spacingTop=-1;spacingLeft=3;spacingRight=3;rotatable=0;labelPosition=right;points=[];portConstraint=eastwest;" vertex="1" parent="eS6HoDvDFkSvX2eC2Q-J-8">
          <mxGeometry y="52" width="210" height="8" as="geometry" />
        </mxCell>
        <mxCell id="eS6HoDvDFkSvX2eC2Q-J-11" value="+ connect(GenericNode): void" style="text;strokeColor=none;fillColor=none;align=left;verticalAlign=top;spacingLeft=4;spacingRight=4;overflow=hidden;rotatable=0;points=[[0,0.5],[1,0.5]];portConstraint=eastwest;" vertex="1" parent="eS6HoDvDFkSvX2eC2Q-J-8">
          <mxGeometry y="60" width="210" height="26" as="geometry" />
        </mxCell>
        <mxCell id="eS6HoDvDFkSvX2eC2Q-J-12" value="BinarySearchTreeNode" style="swimlane;fontStyle=1;align=center;verticalAlign=top;childLayout=stackLayout;horizontal=1;startSize=26;horizontalStack=0;resizeParent=1;resizeParentMax=0;resizeLast=0;collapsible=1;marginBottom=0;" vertex="1" parent="WIyWlLk6GJQsqaUBKTNV-1">
          <mxGeometry x="505.5" y="238" width="231" height="242" as="geometry" />
        </mxCell>
        <mxCell id="eS6HoDvDFkSvX2eC2Q-J-13" value="+ left: BinarySearchTreeNode" style="text;strokeColor=none;fillColor=none;align=left;verticalAlign=top;spacingLeft=4;spacingRight=4;overflow=hidden;rotatable=0;points=[[0,0.5],[1,0.5]];portConstraint=eastwest;" vertex="1" parent="eS6HoDvDFkSvX2eC2Q-J-12">
          <mxGeometry y="26" width="231" height="26" as="geometry" />
        </mxCell>
        <mxCell id="eS6HoDvDFkSvX2eC2Q-J-16" value="+ right: BinarySearchTreeNode" style="text;strokeColor=none;fillColor=none;align=left;verticalAlign=top;spacingLeft=4;spacingRight=4;overflow=hidden;rotatable=0;points=[[0,0.5],[1,0.5]];portConstraint=eastwest;" vertex="1" parent="eS6HoDvDFkSvX2eC2Q-J-12">
          <mxGeometry y="52" width="231" height="26" as="geometry" />
        </mxCell>
        <mxCell id="eS6HoDvDFkSvX2eC2Q-J-17" value="+ parent: BinarySearchTreeNode" style="text;strokeColor=none;fillColor=none;align=left;verticalAlign=top;spacingLeft=4;spacingRight=4;overflow=hidden;rotatable=0;points=[[0,0.5],[1,0.5]];portConstraint=eastwest;" vertex="1" parent="eS6HoDvDFkSvX2eC2Q-J-12">
          <mxGeometry y="78" width="231" height="26" as="geometry" />
        </mxCell>
        <mxCell id="eS6HoDvDFkSvX2eC2Q-J-14" value="" style="line;strokeWidth=1;fillColor=none;align=left;verticalAlign=middle;spacingTop=-1;spacingLeft=3;spacingRight=3;rotatable=0;labelPosition=right;points=[];portConstraint=eastwest;" vertex="1" parent="eS6HoDvDFkSvX2eC2Q-J-12">
          <mxGeometry y="104" width="231" height="8" as="geometry" />
        </mxCell>
        <mxCell id="eS6HoDvDFkSvX2eC2Q-J-28" value="+ search(): BinarySearchTreeNode" style="text;strokeColor=none;fillColor=none;align=left;verticalAlign=top;spacingLeft=4;spacingRight=4;overflow=hidden;rotatable=0;points=[[0,0.5],[1,0.5]];portConstraint=eastwest;" vertex="1" parent="eS6HoDvDFkSvX2eC2Q-J-12">
          <mxGeometry y="112" width="231" height="26" as="geometry" />
        </mxCell>
        <mxCell id="eS6HoDvDFkSvX2eC2Q-J-31" value="+ min(): BinarySearchTreeNode" style="text;strokeColor=none;fillColor=none;align=left;verticalAlign=top;spacingLeft=4;spacingRight=4;overflow=hidden;rotatable=0;points=[[0,0.5],[1,0.5]];portConstraint=eastwest;" vertex="1" parent="eS6HoDvDFkSvX2eC2Q-J-12">
          <mxGeometry y="138" width="231" height="26" as="geometry" />
        </mxCell>
        <mxCell id="eS6HoDvDFkSvX2eC2Q-J-30" value="+ max(): BinarySearchTreeNode" style="text;strokeColor=none;fillColor=none;align=left;verticalAlign=top;spacingLeft=4;spacingRight=4;overflow=hidden;rotatable=0;points=[[0,0.5],[1,0.5]];portConstraint=eastwest;" vertex="1" parent="eS6HoDvDFkSvX2eC2Q-J-12">
          <mxGeometry y="164" width="231" height="26" as="geometry" />
        </mxCell>
        <mxCell id="eS6HoDvDFkSvX2eC2Q-J-33" value="+ successor(): BinarySearchTreeNode" style="text;strokeColor=none;fillColor=none;align=left;verticalAlign=top;spacingLeft=4;spacingRight=4;overflow=hidden;rotatable=0;points=[[0,0.5],[1,0.5]];portConstraint=eastwest;" vertex="1" parent="eS6HoDvDFkSvX2eC2Q-J-12">
          <mxGeometry y="190" width="231" height="26" as="geometry" />
        </mxCell>
        <mxCell id="eS6HoDvDFkSvX2eC2Q-J-32" value="+ predecessor(): BinarySearchTreeNode" style="text;strokeColor=none;fillColor=none;align=left;verticalAlign=top;spacingLeft=4;spacingRight=4;overflow=hidden;rotatable=0;points=[[0,0.5],[1,0.5]];portConstraint=eastwest;" vertex="1" parent="eS6HoDvDFkSvX2eC2Q-J-12">
          <mxGeometry y="216" width="231" height="26" as="geometry" />
        </mxCell>
        <mxCell id="eS6HoDvDFkSvX2eC2Q-J-18" value="BinarSearchTreeGraph" style="swimlane;fontStyle=1;align=center;verticalAlign=top;childLayout=stackLayout;horizontal=1;startSize=26;horizontalStack=0;resizeParent=1;resizeParentMax=0;resizeLast=0;collapsible=1;marginBottom=0;" vertex="1" parent="WIyWlLk6GJQsqaUBKTNV-1">
          <mxGeometry x="91" y="264" width="320" height="190" as="geometry" />
        </mxCell>
        <mxCell id="eS6HoDvDFkSvX2eC2Q-J-19" value="+ root: BinarySearchTreeNode" style="text;strokeColor=none;fillColor=none;align=left;verticalAlign=top;spacingLeft=4;spacingRight=4;overflow=hidden;rotatable=0;points=[[0,0.5],[1,0.5]];portConstraint=eastwest;" vertex="1" parent="eS6HoDvDFkSvX2eC2Q-J-18">
          <mxGeometry y="26" width="320" height="26" as="geometry" />
        </mxCell>
        <mxCell id="eS6HoDvDFkSvX2eC2Q-J-20" value="" style="line;strokeWidth=1;fillColor=none;align=left;verticalAlign=middle;spacingTop=-1;spacingLeft=3;spacingRight=3;rotatable=0;labelPosition=right;points=[];portConstraint=eastwest;" vertex="1" parent="eS6HoDvDFkSvX2eC2Q-J-18">
          <mxGeometry y="52" width="320" height="8" as="geometry" />
        </mxCell>
        <mxCell id="eS6HoDvDFkSvX2eC2Q-J-22" value="+ insert(BinarySearchTreeNode): void" style="text;strokeColor=none;fillColor=none;align=left;verticalAlign=top;spacingLeft=4;spacingRight=4;overflow=hidden;rotatable=0;points=[[0,0.5],[1,0.5]];portConstraint=eastwest;" vertex="1" parent="eS6HoDvDFkSvX2eC2Q-J-18">
          <mxGeometry y="60" width="320" height="26" as="geometry" />
        </mxCell>
        <mxCell id="eS6HoDvDFkSvX2eC2Q-J-23" value="+ delete(BinarySearchTreeNode): void" style="text;strokeColor=none;fillColor=none;align=left;verticalAlign=top;spacingLeft=4;spacingRight=4;overflow=hidden;rotatable=0;points=[[0,0.5],[1,0.5]];portConstraint=eastwest;" vertex="1" parent="eS6HoDvDFkSvX2eC2Q-J-18">
          <mxGeometry y="86" width="320" height="26" as="geometry" />
        </mxCell>
        <mxCell id="eS6HoDvDFkSvX2eC2Q-J-26" value="+ search(BinarySearchTreeNode): BinarySearchTreeNode" style="text;strokeColor=none;fillColor=none;align=left;verticalAlign=top;spacingLeft=4;spacingRight=4;overflow=hidden;rotatable=0;points=[[0,0.5],[1,0.5]];portConstraint=eastwest;" vertex="1" parent="eS6HoDvDFkSvX2eC2Q-J-18">
          <mxGeometry y="112" width="320" height="26" as="geometry" />
        </mxCell>
        <mxCell id="eS6HoDvDFkSvX2eC2Q-J-27" value="+ min(): BinarySearchTreeNode" style="text;strokeColor=none;fillColor=none;align=left;verticalAlign=top;spacingLeft=4;spacingRight=4;overflow=hidden;rotatable=0;points=[[0,0.5],[1,0.5]];portConstraint=eastwest;" vertex="1" parent="eS6HoDvDFkSvX2eC2Q-J-18">
          <mxGeometry y="138" width="320" height="26" as="geometry" />
        </mxCell>
        <mxCell id="eS6HoDvDFkSvX2eC2Q-J-25" value="+ max(): BinarySearchTreeNode" style="text;strokeColor=none;fillColor=none;align=left;verticalAlign=top;spacingLeft=4;spacingRight=4;overflow=hidden;rotatable=0;points=[[0,0.5],[1,0.5]];portConstraint=eastwest;" vertex="1" parent="eS6HoDvDFkSvX2eC2Q-J-18">
          <mxGeometry y="164" width="320" height="26" as="geometry" />
        </mxCell>
        <mxCell id="eS6HoDvDFkSvX2eC2Q-J-40" value="Extends" style="endArrow=block;endSize=16;endFill=0;html=1;rounded=0;dashed=1;" edge="1" parent="WIyWlLk6GJQsqaUBKTNV-1" source="eS6HoDvDFkSvX2eC2Q-J-12" target="eS6HoDvDFkSvX2eC2Q-J-8">
          <mxGeometry width="160" relative="1" as="geometry">
            <mxPoint x="345.5" y="660" as="sourcePoint" />
            <mxPoint x="505.5" y="660" as="targetPoint" />
          </mxGeometry>
        </mxCell>
        <mxCell id="eS6HoDvDFkSvX2eC2Q-J-41" value="Extends" style="endArrow=block;endSize=16;endFill=0;html=1;rounded=0;dashed=1;" edge="1" parent="WIyWlLk6GJQsqaUBKTNV-1" source="eS6HoDvDFkSvX2eC2Q-J-18" target="eS6HoDvDFkSvX2eC2Q-J-0">
          <mxGeometry width="160" relative="1" as="geometry">
            <mxPoint x="520" y="585" as="sourcePoint" />
            <mxPoint x="680" y="585" as="targetPoint" />
          </mxGeometry>
        </mxCell>
        <mxCell id="eS6HoDvDFkSvX2eC2Q-J-42" value="Use" style="endArrow=open;endSize=12;dashed=1;html=1;rounded=0;" edge="1" parent="WIyWlLk6GJQsqaUBKTNV-1" source="eS6HoDvDFkSvX2eC2Q-J-18" target="eS6HoDvDFkSvX2eC2Q-J-12">
          <mxGeometry width="160" relative="1" as="geometry">
            <mxPoint x="251" y="540" as="sourcePoint" />
            <mxPoint x="411" y="540" as="targetPoint" />
          </mxGeometry>
        </mxCell>
        <mxCell id="eS6HoDvDFkSvX2eC2Q-J-43" value="Use" style="endArrow=open;endSize=12;dashed=1;html=1;rounded=0;" edge="1" parent="WIyWlLk6GJQsqaUBKTNV-1" source="eS6HoDvDFkSvX2eC2Q-J-0" target="eS6HoDvDFkSvX2eC2Q-J-8">
          <mxGeometry width="160" relative="1" as="geometry">
            <mxPoint x="120" y="620" as="sourcePoint" />
            <mxPoint x="280" y="620" as="targetPoint" />
          </mxGeometry>
        </mxCell>
        <mxCell id="eS6HoDvDFkSvX2eC2Q-J-52" value="RedBlackTreeNode" style="swimlane;fontStyle=1;align=center;verticalAlign=top;childLayout=stackLayout;horizontal=1;startSize=26;horizontalStack=0;resizeParent=1;resizeParentMax=0;resizeLast=0;collapsible=1;marginBottom=0;" vertex="1" parent="WIyWlLk6GJQsqaUBKTNV-1">
          <mxGeometry x="505.5" y="661" width="231" height="60" as="geometry" />
        </mxCell>
        <mxCell id="eS6HoDvDFkSvX2eC2Q-J-73" value="+ red: boolean" style="text;strokeColor=none;fillColor=none;align=left;verticalAlign=top;spacingLeft=4;spacingRight=4;overflow=hidden;rotatable=0;points=[[0,0.5],[1,0.5]];portConstraint=eastwest;" vertex="1" parent="eS6HoDvDFkSvX2eC2Q-J-52">
          <mxGeometry y="26" width="231" height="26" as="geometry" />
        </mxCell>
        <mxCell id="eS6HoDvDFkSvX2eC2Q-J-56" value="" style="line;strokeWidth=1;fillColor=none;align=left;verticalAlign=middle;spacingTop=-1;spacingLeft=3;spacingRight=3;rotatable=0;labelPosition=right;points=[];portConstraint=eastwest;" vertex="1" parent="eS6HoDvDFkSvX2eC2Q-J-52">
          <mxGeometry y="52" width="231" height="8" as="geometry" />
        </mxCell>
        <mxCell id="eS6HoDvDFkSvX2eC2Q-J-62" value="RedBlackTreeGraph" style="swimlane;fontStyle=1;align=center;verticalAlign=top;childLayout=stackLayout;horizontal=1;startSize=26;horizontalStack=0;resizeParent=1;resizeParentMax=0;resizeLast=0;collapsible=1;marginBottom=0;" vertex="1" parent="WIyWlLk6GJQsqaUBKTNV-1">
          <mxGeometry x="91" y="596" width="320" height="190" as="geometry" />
        </mxCell>
        <mxCell id="eS6HoDvDFkSvX2eC2Q-J-64" value="" style="line;strokeWidth=1;fillColor=none;align=left;verticalAlign=middle;spacingTop=-1;spacingLeft=3;spacingRight=3;rotatable=0;labelPosition=right;points=[];portConstraint=eastwest;" vertex="1" parent="eS6HoDvDFkSvX2eC2Q-J-62">
          <mxGeometry y="26" width="320" height="8" as="geometry" />
        </mxCell>
        <mxCell id="eS6HoDvDFkSvX2eC2Q-J-65" value="+ insert(RedBlackTreeNode): void" style="text;strokeColor=none;fillColor=none;align=left;verticalAlign=top;spacingLeft=4;spacingRight=4;overflow=hidden;rotatable=0;points=[[0,0.5],[1,0.5]];portConstraint=eastwest;" vertex="1" parent="eS6HoDvDFkSvX2eC2Q-J-62">
          <mxGeometry y="34" width="320" height="26" as="geometry" />
        </mxCell>
        <mxCell id="eS6HoDvDFkSvX2eC2Q-J-66" value="+ delete(RedBlackTreeNode): void" style="text;strokeColor=none;fillColor=none;align=left;verticalAlign=top;spacingLeft=4;spacingRight=4;overflow=hidden;rotatable=0;points=[[0,0.5],[1,0.5]];portConstraint=eastwest;" vertex="1" parent="eS6HoDvDFkSvX2eC2Q-J-62">
          <mxGeometry y="60" width="320" height="26" as="geometry" />
        </mxCell>
        <mxCell id="eS6HoDvDFkSvX2eC2Q-J-75" value="+ rotateLeft(RedBlackTreeNode): void" style="text;strokeColor=none;fillColor=none;align=left;verticalAlign=top;spacingLeft=4;spacingRight=4;overflow=hidden;rotatable=0;points=[[0,0.5],[1,0.5]];portConstraint=eastwest;" vertex="1" parent="eS6HoDvDFkSvX2eC2Q-J-62">
          <mxGeometry y="86" width="320" height="26" as="geometry" />
        </mxCell>
        <mxCell id="eS6HoDvDFkSvX2eC2Q-J-76" value="+ rotateRight(RedBlackTreeNode): void" style="text;strokeColor=none;fillColor=none;align=left;verticalAlign=top;spacingLeft=4;spacingRight=4;overflow=hidden;rotatable=0;points=[[0,0.5],[1,0.5]];portConstraint=eastwest;" vertex="1" parent="eS6HoDvDFkSvX2eC2Q-J-62">
          <mxGeometry y="112" width="320" height="26" as="geometry" />
        </mxCell>
        <mxCell id="eS6HoDvDFkSvX2eC2Q-J-77" value="- insertFix(RedBlackTreeNode): void" style="text;strokeColor=none;fillColor=none;align=left;verticalAlign=top;spacingLeft=4;spacingRight=4;overflow=hidden;rotatable=0;points=[[0,0.5],[1,0.5]];portConstraint=eastwest;" vertex="1" parent="eS6HoDvDFkSvX2eC2Q-J-62">
          <mxGeometry y="138" width="320" height="26" as="geometry" />
        </mxCell>
        <mxCell id="eS6HoDvDFkSvX2eC2Q-J-78" value="- deleteFix(RedBlackTreeNode): void" style="text;strokeColor=none;fillColor=none;align=left;verticalAlign=top;spacingLeft=4;spacingRight=4;overflow=hidden;rotatable=0;points=[[0,0.5],[1,0.5]];portConstraint=eastwest;" vertex="1" parent="eS6HoDvDFkSvX2eC2Q-J-62">
          <mxGeometry y="164" width="320" height="26" as="geometry" />
        </mxCell>
        <mxCell id="eS6HoDvDFkSvX2eC2Q-J-70" value="Use" style="endArrow=open;endSize=12;dashed=1;html=1;rounded=0;" edge="1" source="eS6HoDvDFkSvX2eC2Q-J-62" target="eS6HoDvDFkSvX2eC2Q-J-52" parent="WIyWlLk6GJQsqaUBKTNV-1">
          <mxGeometry width="160" relative="1" as="geometry">
            <mxPoint x="251" y="872" as="sourcePoint" />
            <mxPoint x="411" y="872" as="targetPoint" />
          </mxGeometry>
        </mxCell>
        <mxCell id="eS6HoDvDFkSvX2eC2Q-J-71" value="Extends" style="endArrow=block;endSize=16;endFill=0;html=1;rounded=0;dashed=1;" edge="1" parent="WIyWlLk6GJQsqaUBKTNV-1" source="eS6HoDvDFkSvX2eC2Q-J-52" target="eS6HoDvDFkSvX2eC2Q-J-12">
          <mxGeometry width="160" relative="1" as="geometry">
            <mxPoint x="330" y="480" as="sourcePoint" />
            <mxPoint x="490" y="480" as="targetPoint" />
          </mxGeometry>
        </mxCell>
        <mxCell id="eS6HoDvDFkSvX2eC2Q-J-72" value="Extends" style="endArrow=block;endSize=16;endFill=0;html=1;rounded=0;dashed=1;" edge="1" parent="WIyWlLk6GJQsqaUBKTNV-1" source="eS6HoDvDFkSvX2eC2Q-J-62" target="eS6HoDvDFkSvX2eC2Q-J-18">
          <mxGeometry width="160" relative="1" as="geometry">
            <mxPoint x="330" y="480" as="sourcePoint" />
            <mxPoint x="490" y="480" as="targetPoint" />
          </mxGeometry>
        </mxCell>
      </root>
    </mxGraphModel>
  </diagram>
</mxfile>
